<svg xmlns="http://www.w3.org/2000/svg" xmlns:xlink="http://www.w3.org/1999/xlink" xml:space="preserve" version="1.1" shape-rendering="geometricPrecision" text-rendering="geometricPrecision" image-rendering="optimizeQuality" fill-rule="evenodd" clip-rule="evenodd" viewBox="0 0 5000000 6250000" x="0px" y="0px"><g><path fill="black" d="M2488897 1477015c-65907,-118 -130516,14646 -193825,34844 -19252,31890 -30591,74175 -30591,129571 0,91420 27166,173745 71104,232684 41458,55868 97799,90357 159218,90357 61537,0 117878,-34489 159336,-90357 43938,-58939 70986,-141264 70986,-232684 0,-52915 -7913,-94137 -22441,-125437 -72995,-21970 -144218,-38742 -213787,-38978zm1187164 1553553c19252,0 60828,-27284 60828,-60829 0,-33544 -37087,-60828 -60828,-60828 -23741,0 -26812,4606 -37088,12520l29292 -43821c2244,-3425 1299,-8031 -2126,-10276 -1181,-826 -2717,-1299 -4134,-1299l0 0 -104885 0c-4134,0 -7441,3307 -7441,7441 0,1772 590,3426 1653,4607l28938 43466c-10276,-7914 -13465,-12638 -37206,-12638 -23741,0 -60828,27284 -60828,60828 0,33545 41576,60829 60828,60829 19253,0 9686,-591 14174,-1654 -5433,8977 -8504,8505 -8504,30946 0,22442 27284,60829 60829,60829 33544,0 60828,-38387 60828,-60829 0,-22441 -3071,-21969 -8504,-30946 4606,1063 -5079,1654 14174,1654zm-43703 1185510c10513,-7678 23269,-11575 40868,-11575 35198,0 63663,22559 63663,50198 0,56222 -77601,115988 -120594,148351 -4016,3071 -9803,2953 -13701,-118 -42876,-32363 -120358,-92129 -120358,-148233 0,-27639 28583,-50198 63663,-50198 17717,0 30473,3897 40986,11575l-35553 -53270c-1063,-1299 -1653,-2953 -1653,-4724 0,-4016 3307,-7441 7441,-7441l104885 0 0 118c1417,0 2953,354 4134,1181 3425,2244 4370,6969 2126,10276l-35907 53860zm-146933 -358594l116460 116460c4252,4252 11221,4252 15473,0l116342 -116460c4252,-4252 4252,-11221 0,-15473l-116342 -116342c-4252,-4253 -11221,-4253 -15473,0l-116460 116342c-4252,4252 -4252,11221 0,15473zm124256 -340995c4960,7677 10394,14055 16772,19016 11103,8977 24213,13347 41340,13347 19016,0 36379,-7677 48899,-20198l590 -708c12166,-12402 19607,-29411 19607,-48191 0,-31772 -15473,-62954 -38623,-93782 -22442,-30001 -51734,-59175 -80908,-88468 -4252,-4252 -11221,-4252 -15473,0 -29292,29293 -58584,58467 -81026,88468 -23150,30828 -38623,62010 -38623,93782 0,19135 7795,36379 20315,48899 12520,12521 29765,20198 48899,20198 27757,0 44175,-10748 58231,-32363zm-2190660 -1489181c19253,0 60829,27284 60829,60829 0,33544 -37088,60828 -60829,60828 -23741,0 -26812,-4606 -37088,-12520l29293 43821c2244,3425 1299,8031 -2008,10275 -1300,827 -2717,1300 -4134,1300l0 0 -104886 0c-4134,0 -7441,-3308 -7441,-7441 0,-1772 591,-3426 1536,-4607l28938 -43466c-10276,7914 -13347,12638 -37088,12638 -23741,0 -60829,-27284 -60829,-60828 0,-33545 41576,-60829 60829,-60829 19252,0 9567,591 14174,1654 -5434,-8977 -8623,-8505 -8623,-30946 0,-22442 27403,-60829 60947,-60829 33544,0 60829,38387 60829,60829 0,22441 -3189,21969 -8504,30946 4488,-1063 -5198,-1654 14055,-1654zm-43702 -1185510c10512,7678 23268,11575 40985,11575 35080,0 63546,-22559 63546,-50198 0,-56222 -77483,-115988 -120476,-148351 -4134,-3071 -9804,-2953 -13702,118 -42993,32363 -120358,92129 -120358,148233 0,27639 28466,50198 63664,50198 17599,0 30355,-3897 40985,-11575l-35670 53270c-945,1299 -1654,2952 -1654,4724 0,4016 3425,7441 7559,7441l104886 0 0 -118c1417,0 2834,-354 4134,-1181 3307,-2244 4252,-6969 2008,-10276l-35907 -53860zm-146816 358594l116343 -116460c4252,-4252 11220,-4252 15472,0l116343 116460c4370,4252 4370,11221 0,15473l-116343 116342c-4252,4252 -11220,4252 -15472,0l-116343 -116342c-4252,-4252 -4252,-11221 0,-15473zm124138 340995c5079,-7677 10512,-14055 16772,-19016 11103,-8977 24214,-13347 41340,-13347 19135,0 36379,7677 48899,20197l591 709c12166,12402 19607,29410 19607,48191 0,31772 -15355,62954 -38505,93782 -22442,30001 -51734,59175 -81027,88467 -4252,4253 -11220,4253 -15472,0 -29293,-29292 -58585,-58466 -81027,-88467 -23150,-30828 -38505,-62010 -38505,-93782 0,-19135 7678,-36380 20198,-48900 12520,-12520 29764,-20197 48899,-20197 27875,0 44174,10748 58230,32363zm-115279 -1041411l2525276 0c42994,0 82089,17481 110437,45829 28229,28347 45828,67325 45828,110318l0 3687754c0,42993 -17599,81971 -45828,110318l-945 827c-28229,27757 -66971,45002 -109492,45002l-2525276 0c-42994,0 -82089,-17481 -110319,-45829l-354 -354c-28111,-28229 -45592,-67207 -45592,-109964l0 -3687754c0,-42875 17599,-81971 45828,-110318 28348,-28348 67443,-45829 110437,-45829zm2525276 32245l-2525276 0c-34135,0 -65081,13938 -87523,36380 -22441,22441 -36379,53505 -36379,87522l0 3687754c0,34017 13938,65081 36379,87522 22442,22442 53388,36380 87523,36380l2525276 0c33781,0 64490,-13702 86814,-35671l709 -709c22441,-22559 36379,-53505 36379,-87522l0 -3687754c0,-34017 -13938,-64963 -36379,-87522 -22442,-22442 -53388,-36380 -87523,-36380zm-1273741 2990764c-65907,118 -130516,-14646 -193825,-34844 -19252,-31890 -30591,-74175 -30591,-129571 0,-91420 27166,-173745 71104,-232684 41458,-55868 97799,-90357 159218,-90357 61537,0 117878,34489 159336,90357 43938,58939 70986,141264 70986,232684 0,52915 -7913,94137 -22441,125437 -72995,21970 -144218,38742 -213787,38978zm-153784 -585137c11693,-28347 23977,-47836 42639,-63427 111145,-57049 136540,-53860 240834,0 16418,13701 27875,30356 38387,53506 -14173,18189 -25512,39450 -32953,64844 -43821,-28819 -86932,-43347 -131107,-43584 -44293,-118 -87877,14292 -132524,43584 -6142,-20906 -14646,-38977 -25276,-54923zm435014 -90239c11693,-35434 19252,-72049 22087,-110082 11221,3071 23741,236 32481,-8622 13111,-12993 13111,-34135 0,-47128 -12992,-13110 -34135,-13110 -47127,0 -9095,8977 -11812,21851 -8386,33309 -57876,-1418 -114925,12283 -171147,40394 -19607,-51615 -46774,-99215 -83389,-141736 10158,-5788 16890,-16654 16890,-29056 0,-18426 -14882,-33308 -33308,-33308 -18425,0 -33426,14882 -33426,33308 0,12756 7205,23859 17717,29410 -39450,37560 -68860,84097 -88822,139020 -54804,-26457 -110318,-39450 -166540,-38032 3425,-11458 708,-24332 -8268,-33309 -13111,-13110 -34253,-13110 -47246,0 -12992,12993 -12992,34135 0,47128 8859,8858 21261,11693 32482,8622 2952,39805 11220,78073 23859,115043 -24922,-12047 -51498,-22678 -78664,-33426 -24686,-9804 -49844,-19725 -74058,-31655 31419,-34371 53033,-71340 66026,-109609 15237,-44884 18426,-91302 11221,-136540l729826 0c-7087,45238 -3898,91656 11221,136540 11102,32481 28347,64135 52560,93900 -33662,19371 -70277,33426 -105712,47246 -24095,9331 -47836,18426 -70277,28583zm-206582 -37914c-48308,-25158 -69451,-35198 -138902,827l-708 354 -709 354 -827 355 118 -709 118 -591c5552,-57285 27993,-115515 73467,-153075 43348,45828 60593,96263 70869,152721l118 591 0 472 118 591 -591 -355 -708 -354 -591 -236 -591 -355 -472 -236 -118 -118 -591 -236zm31182 3779l-354 -118 -472 -118 -473 -118 -472 -236 -473 -118 355 -236 236 -237 354 -236 236 -236 355 -236 354 -237 236 -236c45002,-35670 97444,-61301 159100,-55395 -1536,57521 -24568,112326 -57876,158154l-473 709 -472 591 -118 -355 -118 -354 -118 -236 -118 -355c-20434,-63781 -35789,-80790 -99689,-100397zm-192880 0c-68388,21615 -80081,37797 -100278,101697l-355 -473 -354 -472c-33308,-46301 -56577,-98744 -58230,-158509 57757,-5434 115161,19370 159099,55277l355 354 354 237 354 354 355 236 354 355 354 236 -472 236 -591 118 -472 118 -473 236zm287962 237409c5079,-51733 30710,-84687 66735,-109373l159099 274969 -8504 5670 -355 -591c-10630,-18426 -34134,-24686 -52560,-14174 -18308,10631 -24686,34135 -14056,52561l827 1299c-14882,7914 -30119,15237 -45592,22088 -11457,-77955 -40159,-147879 -80672,-202448 -7795,-10512 -16181,-20551 -24922,-30001zm119413 -137838c18544,-8268 38269,-15946 58349,-23741l19843 -7678 189336 189101 -8504 9921c-14646,-8150 -33426,-5905 -45828,6496 -12756,12757 -14646,32482 -5551,47246 -8386,8150 -17009,16064 -25867,23741l-181778 -245086zm144336 -59294c29646,-13937 58466,-30119 84569,-50552l154257 88939c-3189,6733 -6614,13465 -10040,20080 -15709,-3189 -32481,3779 -40985,18425 -8504,14883 -6024,32954 4842,45002 -4370,6969 -8740,13701 -13228,20434l-179415 -142328zm138075 -104885c18189,-24213 33426,-52915 44529,-87168l123783 33072c-1772,8504 -3779,17008 -5787,25513 -17481,-591 -33663,10866 -38387,28465 -4489,17008 3071,34371 17480,42993 -1771,5316 -3661,10749 -5551,16064l-136067 -58939zm60710 -160989c1890,-14646 3189,-30119 3898,-46419l123075 0c-827,21733 -2481,43230 -4843,64490l-122130 -18071zm-1312246 -46419c945,22324 2953,42993 6024,62246l-118350 20316c-3543,-27167 -6024,-54687 -7087,-82562l119413 0zm24922 135831c12639,34017 29411,62010 49136,85515l-135477 62364c-3307,-8623 -6378,-17363 -9449,-26222 15355,-8149 23741,-26221 19016,-43820 -4960,-18308 -22323,-30001 -40749,-28347 -1181,-4725 -2362,-9449 -3425,-14174l120948 -35316zm105830 137603c24214,17126 50317,31182 77011,43466l-177407 142800c-4134,-6142 -8150,-12284 -12166,-18544 11811,-11930 14764,-30828 5906,-46183 -8859,-15473 -26812,-22323 -43230,-17953l-4961 -9567 154847 -94019zm143155 71341l7441 2952c20788,8268 41103,16300 60120,25277l-180478 236700c-4016,-3543 -7914,-7205 -11812,-10866 10040,-14883 8504,-35316 -4724,-48545 -12993,-12874 -32836,-14646 -47718,-5315 -3189,-3662 -6497,-7323 -9686,-10985l186857 -189218zm120003 58466c33899,25158 57286,59057 60829,111736 -6969,7795 -13583,15945 -19843,24449 -39804,53506 -68270,121894 -80081,198078 -12875,-5906 -25631,-12284 -38151,-18899 8150,-17835 1535,-39332 -15709,-49253 -17127,-9922 -38505,-5197 -49963,10158 -5197,-3426 -10394,-6969 -15472,-10513l158390 -265756zm-20315 549702c-35434,52089 -89176,174100 -103704,209062 -56695,-58703 -108901,-129689 -155438,-210833 -82562,-143863 -147170,-319144 -187447,-514977 35670,63427 78309,121775 126854,173864 83153,89530 183313,160635 294931,207408 0,53387 8858,98152 24804,135476zm587144 -131224c115752,-46655 219574,-119413 305207,-211660 48545,-52089 91184,-110437 126854,-173864 -40277,195833 -104885,371114 -187447,514977 -52915,92365 -113271,171501 -179061,234338 -19016,-62955 -54686,-174218 -88585,-226543 14528,-37442 22560,-82798 23032,-137248zm265520 -41931l4016 -15236 12757 9213c2008,1417 4842,944 6260,-1063 945,-1418 1063,-3071 354,-4489l-6733 -14292 15710 -1181c2480,-236 4252,-2362 4134,-4842 -118,-1772 -1182,-3071 -2717,-3780l-14292 -6496 11339 -11103c1654,-1654 1772,-4488 0,-6260 -1181,-1181 -2835,-1536 -4370,-1181l-15237 4252 1536 -15709c236,-2481 -1536,-4607 -4016,-4843 -1772,-236 -3307,709 -4134,2008l-8859 12874 -8976 -12992c-1418,-2008 -4134,-2481 -6142,-1181 -1418,945 -2126,2598 -1890,4252l1417 15591 -15236 -4252c-2363,-591 -4843,708 -5434,3189 -472,1535 118,3189 1181,4252l11221 11103 -14291 6614c-2245,945 -3308,3662 -2245,5788 709,1535 2126,2480 3662,2598l15709 1299 -6732 14292c-1063,2126 -119,4843 2126,5906 1535,709 3425,472 4724,-591l12638 -8976 3898 15236c591,2363 3071,3898 5433,3189 1654,-354 2835,-1653 3189,-3189zm-154847 307333l3898 -15119 12874 9095c2008,1417 4843,945 6260,-945 945,-1417 1063,-3189 355,-4488l-6733 -14292 15709 -1299c2363,-118 4252,-2244 4134,-4725 -236,-1890 -1417,-3307 -3071,-3898l-13937 -6378 11221 -11102c1771,-1654 1771,-4489 118,-6260 -1181,-1182 -2953,-1536 -4370,-1182l-15237 4252 1535 -15709c237,-2480 -1653,-4724 -4016,-4842 -1653,-237 -3307,590 -4134,1889l-8976 12993 -8859 -12993c-1417,-2007 -4252,-2598 -6260,-1181 -1417,945 -2008,2599 -1890,4134l1536 15709 -15237 -4252c-2362,-590 -4842,709 -5433,3071 -473,1654 0,3308 1181,4371l11221 11102 -14410 6497c-2244,1063 -3189,3661 -2126,5905 709,1536 2126,2481 3661,2599l15710 1299 -6851 14174c-945,2244 -118,4960 2126,6023 1654,709 3425,473 4725,-590l12638 -8977 4016 15237c590,2362 3071,3780 5433,3189 1654,-354 2835,-1772 3189,-3307zm38860 -124728l9921 -38269 32127 22914c2008,1417 4725,945 6142,-945 945,-1418 1063,-3189 472,-4489l-17008 -35670 39332 -3071c2480,-236 4252,-2362 4134,-4843 -118,-1771 -1417,-3307 -2953,-3897l-35670 -16182 28229 -27639c1772,-1771 1772,-4606 0,-6378 -1063,-1181 -2835,-1535 -4370,-1181l-38033 10630 3780 -39332c236,-2480 -1536,-4606 -4016,-4842 -1654,-118 -3189,590 -4016,1890l-22442 32599 -22323 -32599c-1418,-2008 -4134,-2481 -6142,-1182 -1418,945 -2126,2599 -2008,4252l3898 39214 -38151 -10630c-2362,-590 -4843,827 -5433,3189 -473,1536 0,3189 1181,4370l28111 27639 -35907 16418c-2244,945 -3189,3661 -2244,5906 709,1417 2244,2480 3780,2480l39332 3189 -17009 35552c-1063,2245 -118,4961 2126,6024 1536,709 3426,473 4725,-590l31891 -22796 9921 38269c591,2362 3071,3779 5433,3189 1654,-473 2835,-1654 3190,-3189zm-993929 -182723l3897 -15118 12875 9213c2008,1417 4724,944 6260,-1063 945,-1418 945,-3071 354,-4489l-6850 -14292 15709 -1181c2480,-236 4370,-2362 4134,-4842 -118,-1772 -1300,-3308 -2953,-3898l-14056 -6378 11339 -11103c1772,-1654 1772,-4488 0,-6260 -1181,-1181 -2835,-1536 -4370,-1181l-15119 4252 1418 -15709c236,-2481 -1536,-4607 -4016,-4843 -1654,-236 -3189,709 -4134,2008l-8859 12874 -8976 -12992c-1300,-2008 -4134,-2481 -6142,-1181 -1418,945 -2008,2598 -1890,4134l1535 15709 -15236 -4252c-2363,-591 -4843,708 -5552,3189 -354,1535 118,3189 1182,4252l11338 11103 -14409 6614c-2245,945 -3190,3662 -2245,5788 709,1535 2245,2480 3780,2598l15709 1299 -6850 14292c-1063,2126 -119,4843 2126,5906 1653,709 3425,472 4724,-591l12638 -8976 4016 15236c591,2481 2953,3898 5433,3189 1654,-354 2835,-1653 3190,-3307zm137484 307451l3898 -15119 12874 9095c2008,1417 4725,945 6142,-945 945,-1417 1063,-3189 473,-4488l-6851 -14292 15709 -1299c2481,-118 4371,-2244 4134,-4725 -118,-1890 -1299,-3307 -2953,-3898l-14055 -6378 11339 -11102c1653,-1654 1772,-4489 0,-6260 -1181,-1182 -2835,-1536 -4370,-1182l-15237 4252 1535 -15709c237,-2480 -1535,-4724 -4015,-4842 -1654,-237 -3190,590 -4016,1889l-8977 12993 -8977 -12993c-1299,-2007 -4134,-2598 -6142,-1181 -1417,945 -2126,2599 -1889,4134l1417 15709 -15119 -4252c-2480,-590 -4842,709 -5551,3071 -472,1654 118,3308 1181,4371l11221 11102 -14292 6497c-2244,1063 -3189,3661 -2244,5905 709,1536 2126,2481 3780,2599l15709 1299 -6851 14174c-1063,2244 -118,4960 2126,6023 1536,709 3426,473 4725,-590l12638 -8977 3898 15237c590,2362 3071,3780 5433,3189 1654,-354 2953,-1772 3307,-3307zm-15591 -124728l9922 -38269 32127 22914c2008,1417 4724,945 6142,-945 1063,-1418 1063,-3189 472,-4489l-17008 -35670 39332 -3071c2480,-236 4252,-2362 4134,-4843 -118,-1771 -1300,-3307 -2953,-3897l-35671 -16182 28230 -27639c1771,-1771 1771,-4606 118,-6378 -1181,-1181 -2953,-1535 -4370,-1181l-38151 10630 3779 -39332c237,-2480 -1535,-4606 -4016,-4842 -1653,-118 -3189,590 -4015,1890l-22442 32599 -22324 -32599c-1299,-2008 -4134,-2481 -6142,-1182 -1417,945 -2126,2599 -1889,4252l3779 39214 -38150 -10630c-2363,-590 -4725,827 -5434,3189 -472,1536 118,3189 1181,4370l28230 27639 -36025 16418c-2244,945 -3189,3661 -2244,5906 708,1417 2244,2480 3779,2480l39332 3189 -17008 35552c-1063,2245 -118,4961 2126,6024 1535,709 3425,473 4725,-590l31890 -22796 9922 38269c590,2362 3071,3779 5433,3189 1654,-473 2835,-1654 3189,-3189zm3307 278394c-27638,82444 116697,197605 -59411,261032 -2244,-7087 -6614,-13583 -12992,-18662 -16891,-13465 -41222,-10985 -54333,5551 -13229,16536 -10158,40868 6614,54333 16891,13465 41222,10984 54451,-5552 1654,-2126 3071,-4252 4252,-6614 227133,104531 249457,-134414 300482,-135949 51025,5079 591,257370 253118,288198l0 1890c-708,25158 19607,46064 45238,46773 25749,590 47009,-19253 47718,-44411 590,-25040 -19725,-45946 -45356,-46655 -13465,-354 -25749,5079 -34489,13819 -213905,-248866 306506,-378791 195597,-82325 -11930,-4607 -26104,-3071 -37324,5197 -17363,12756 -21379,36970 -8859,53978 12520,17008 36852,20434 54214,7559 15355,-11339 20198,-31654 12402,-47954 87759,-53269 143627,-171620 86932,-324223 82562,-71931 157328,-166068 221464,-277922 147288,-256543 239771,-607696 244496,-995701l118 0 0 -31182 0 -6850 0 -31182 -118 0c-4725,-388005 -97208,-739158 -244496,-995701 -64136,-111854 -138902,-205991 -221464,-277922 56695,-152603 827,-270954 -86932,-324223 7796,-16300 2953,-36615 -12402,-47954 -17362,-12875 -41694,-9449 -54214,7559 -12520,17008 -8504,41222 8859,53978 11220,8268 25394,9804 37324,5197 110909,296466 -409502,166541 -195597,-82325 8740,8740 21024,14173 34489,13819 25631,-709 45946,-21615 45356,-46655 -709,-25158 -21969,-45001 -47718,-44411 -25631,709 -45946,21615 -45238,46773l0 1890c-252527,30828 -202093,283119 -253118,288198 -51025,-1535 -73349,-240480 -300482,-135949 -1181,-2362 -2598,-4488 -4252,-6614 -13229,-16536 -37560,-19017 -54451,-5552 -16772,13465 -19843,37797 -6614,54333 13111,16536 37442,19016 54333,5551 6378,-5079 10748,-11575 12992,-18662 176108,63427 31773,178588 59411,261032 -71340,68034 -136303,153076 -192998,251937 -147288,256543 -239771,607696 -244496,995701l-118 0 0 31182 0 6850 0 31182 118 0c4725,388005 97208,739158 244496,995701 56695,98861 121658,183903 192998,251937zm66499 57049l-827 -1181 -1536 -2362 -1535 -2244c-26812,-41340 -1536,-50435 23386,-52561l1772 354 709 118 1063 237 1417 354 236 118 1772 472 1181 355 473 118 1181 354 590 236 1654 591 0 118 1654 591 708 354 827 354 1417 709 237 118 1535 827 473 118 236 236 1771 1063 119 0 472 355 1536 945 118 118 1417 827 118 236 1299 827 119 118 1299 1063 1417 1063 0 118 1299 1063 237 236 1181 1063 0 0 1417 1299 118 237 1181 1063 1182 1417 0 0 1181 1417 118 0 1181 1536 2362 3071 1181 1535 2126 3307 1063 1772 0 0 945 1772c2953,5315 5552,11221 7560,17717l708 2126c4843,16064 6733,35080 4961,56459 -2126,25512 -9331,54450 -22914,85750 17126,-27875 29883,-53387 40159,-76183l590 -1300 237 -472 354 -827 590 -1299 591 -1181 472 -1063 0 -236 591 -1300 591 -1181 472 -1299 236 -236 355 -945 590 -1299 473 -1182 354 -826 236 -473 473 -1181 590 -1181 473 -1181 0 -118 472 -1182 591 -1181 472 -1181 236 -472 237 -709 472 -1181 591 -1181 354 -945 118 -118 473 -1181 472 -1182 472 -1181 119 -236 354 -827 472 -1181 473 -1063 354 -709 118 -472 473 -1063 472 -1181 473 -1063 0 0 472 -1063 473 -1063 472 -1181 118 -473 236 -590 473 -1063 472 -1063 355 -827 118 -236 472 -1063 355 -945 472 -1063 118 -237 354 -826 1063 -2717 237 -354 354 -945 473 -1063 472 -945 0 -118 354 -827 473 -1063 354 -945 236 -473 237 -472 354 -945 472 -945 355 -827 0 -118 472 -945 473 -945 354 -944 118 -237 354 -590 355 -945 472 -945 236 -591 119 -236 472 -945c13819,-29646 27284,-47482 53506,-50671l12992 0c27048,1063 52207,12402 77719,102996l236 945 0 0 355 1063 236 1063 236 1063 355 1063 354 1417 236 709 1417 5197 0 118 1418 5669 118 355 236 708 473 2363 354 1181 236 1063 236 945 119 236 236 1181 590 2480 355 1182 236 1181 118 354 118 827 354 1299 237 1181 354 1300 236 1181 236 945 119 354 236 1181 354 1299 236 1300 237 1299 354 1299 0 236 236 1063 591 2599 354 1299 236 1417 237 827 118 473 236 1299 354 1417 236 1300 355 1417 236 1299 0 236 236 1182 355 1417 236 1417 354 1418 236 1417 237 709 118 708 236 1418 354 1417 237 1418 354 1417 236 1535 0 0 236 1418 355 1535 236 1418c1890,9449 3780,19252 5551,29646 3662,-9685 7441,-19016 11339,-27757l591 -1417 590 -1417 591 -1300 590 -1417 709 -1299 591 -1299 0 0 590 -1418 591 -1299 709 -1299 590 -1300 591 -1299 0 0 708 -1299 591 -1299 591 -1300 708 -1299 1890 -3780 591 -1181 708 -1299 591 -1181 590 -1299 709 -1181 591 -1182 2008 -3661 590 -1181 709 -1181 590 -1182 709 -1063 0 -118 591 -1063 708 -1181 591 -1181 709 -1063 708 -1181 0 -118 591 -945 709 -1181 708 -1063 591 -1063 2008 -3308 708 -1063 709 -1063 591 -1063 118 -236 590 -827 709 -1063 591 -1063 708 -1063 709 -945 118 -236 591 -827 590 -945 709 -1063 709 -1063 1299 -1889 709 -1063 708 -945 709 -945 709 -945 118 -236 590 -709 591 -945 709 -945c54923,-74884 118350,-90830 159926,-93901 36851,-2716 68388,4843 94963,19962l827 472 236 118 1064 591 1063 590 944 709 237 0 826 591 1064 708 1063 591 354 354 590 355 1063 708 1064 591 708 472 236 237 1063 708 945 709 1063 709 0 0 945 708 945 709 1063 709 945 826 945 709 945 709 591 472 354 355 945 708 945 827 945 827 945 709 944 826 945 827 945 827 945 827 827 827 472 354 473 472 945 827 827 827 708 591 236 236 827 827 945 944 827 827 0 0 945 945 827 827 827 945 236 236 590 591 945 945 827 945 827 826 827 945 826 945 709 827 118 118 827 945 827 945 827 945 118 236 708 709 709 1063 827 945 354 472 473 473 708 1063 827 944 591 709 118 236 827 1063 1535 2008 0 0 1536 2008 708 1063 237 355 472 708c17599,24922 30828,54569 40395,86814 6851,-40985 -4134,-75002 -18308,-101932l-708 -1418 -827 -1417 0 -118 -827 -1417 -709 -1418 -354 -472 -472 -945 -827 -1418 -591 -944 -236 -473 -827 -1299 -827 -1418 -826 -1299 -827 -1299 -236 -591 -1300 -2126 -708 -945 -119 -354 -1653 -2480 -118 -118 -709 -1182 -827 -1181 -354 -472 -473 -709 -1417 -2126 -118 -354 -827 -1063 -827 -1181 -118 -119 -590 -1063 -827 -1063 -354 -590 -473 -591 -709 -1063 -590 -945 -118 -118 -827 -1063 -709 -1063 -118 -236 -590 -827 -709 -1063 -354 -472 -355 -473 -708 -1063 -591 -827 -118 -118 -591 -945 -708 -945 -119 -236 -472 -708 -709 -945 -354 -473 -236 -472 -591 -827 -472 -827 -118 -118 -591 -827 -472 -827 -119 -236 -472 -590 -472 -827 -355 -473 -118 -354 -472 -827 -945 -1535 -355 -709 -118 -236 -354 -473 -354 -826 -355 -591 -236 -709 -354 -708 0 0 -237 -709 -354 -591 0 -236 -236 -354 -118 -709 -236 -590 -119 -591 0 0 -236 -1063c-827,-5551 2717,-8859 13229,-9803l1535 -119c23741,1772 26576,15591 31891,26694l236 591 237 472 118 591 236 590 236 591 236 472 119 591 236 590 236 473 118 591 236 590 237 473 118 236 118 354 118 473 236 590 236 591 119 472 236 591 236 590 118 473 236 590 237 473 118 590 236 473 118 472 118 118 118 591 236 472 237 591 118 472 236 591 118 472 236 591 237 472 118 591 236 473 118 590 236 473 0 236 237 354 118 473 236 590 118 473 236 590 236 473 119 590 236 473 118 472 236 591 118 472 236 591 119 354 0 118 236 591 118 472 236 473 118 590 236 473 119 472 236 591 118 472 236 473 118 590 237 473 118 472 118 118 118 473 118 472c42049,124374 33190,185439 -56340,278395 70396,-96972 48308,-185321 -14647,-230913l-1299 -945c-8150,-5669 -16890,-10748 -26221,-15000l-1654 -709 -1535 -709c-5197,-2244 -10630,-4252 -16300,-6024l-1653 -472 -5079 -1536 -1654 -472 -1772 -473 -3425 -826 -1772 -355 -5315 -1063 -1772 -354 -5315 -945 -1889 -236 -5434 -709 -1771 -236 -1890 -118 -1772 -236 -1890 -119 -1890 -118 -1889 -118 -1890 -118 -1772 -118 -1890 0 -1890 -118 -1889 0 -2008 0 -1890 0 0 0c-31182,236 -64609,7677 -97917,23741 -4134,2008 -8268,4134 -12165,6260l0 0 -3189 1772 -473 236 -1772 945 -1771 1063 -1772 1063 -1654 1063 -1771 1063 0 0 -3308 2126 -1653 1063 -1654 1063 -3189 2126 -118 118 -1535 1181 -1654 1063 -2835 2126 -236 118 -1535 1182 -355 236 -2598 2126 -1536 1181 -1417 1181 -118 118 -2363 1890 -472 354 -1417 1182 -1300 1299 -2362 2008 -472 354 -1300 1299 -1299 1181 -1299 1300 -1299 1299 -1300 1181 -2126 2244 -2716 2835 -1300 1417 -1181 1300 -1181 1299 0 118 -2244 2480 -1063 1418 -1063 1299 -1063 1181 0 118 -1063 1418 -1063 1299 -1063 1417 -1890 2481 -118 236 -945 1417 0 0 -1890 2717 -945 1417 -827 1418 -118 118 -1535 2480 -118 236 -945 1418 -827 1417 0 0 -1063 1890 -1299 2362 -827 1536 -709 1417c-40749,79491 -5787,180006 102405,244732 -133587,-31536 -157446,-156501 -178470,-253472l-354 -1536 -355 -1417 -118 -355 -236 -1181 -354 -1535 -237 -1536 -354 -1535 -354 -1418 -118 -472 -237 -1063 -354 -1536 -236 -1417 -355 -1535 -354 -1418 -118 -472 -236 -1063 -355 -1418 -354 -1417 -236 -1417 -355 -1536 -118 -472 -236 -945 -354 -1418 -355 -1417 -354 -1417 -354 -1418 -118 -590 -237 -827 -354 -1299 -354 -1418 -237 -1417 -354 -1299 -236 -709 -118 -709 -473 -1417 -354 -1299 -354 -1300 -355 -1299 -118 -708 -236 -709 -354 -1299 -355 -1300 -354 -1299 -473 -1299 -354 -1299 -354 -1182 -355 -1299 -472 -1299 -354 -1181 -827 -2481 -354 -1181 -473 -1299 -354 -1181 -473 -1181 -354 -1181 -473 -1182 -354 -1181 -472 -1063 -827 -2362 -473 -1063 -472 -1063 -1417 -3307 -473 -1063 -472 -1063c-11575,-25277 -27757,-40868 -54451,-39568 -6969,1299 -13347,4724 -19252,9803l-709 591 -709 708 -708 591 -709 709 -355 236 -1771 1771 -709 827 -709 709 -1417 1535 -591 709 -708 827 -118 236 -1181 1417 -709 827 -709 827 -590 827 -1418 1772 -590 945 -709 944 -591 945 -708 945 -591 945 -709 945 -590 945 -1299 2008 -709 945 -591 1063 -1299 2008 -590 1063 -709 1063 -591 1063 -236 472 -472 591 -591 1181 -591 1063 -708 1063 -473 945 -118 236 -590 1063 -709 1181 -591 1182 -590 1063 -118 236 -591 945 -590 1181 -591 1181 -709 1181 -354 591 -236 590 -709 1181 -590 1300 -591 1181 -591 1063 -118 118 -590 1299 -591 1181 -709 1300 -590 1181 -236 354 -473 945 -590 1181 -591 1299 -709 1300 -354 826 -236 473 -709 1299c-40985,81971 -90593,195715 -243551,144453 248039,-27756 161108,-165123 126855,-216975zm335561 -98034c22442,0 40513,-18190 40513,-40632 0,-22441 -18071,-40513 -40513,-40513 -22441,0 -40631,18072 -40631,40513 0,22442 18190,40632 40631,40632zm0 39095c-44056,0 -79727,-35670 -79727,-79727 0,-20433 7678,-38977 20316,-53151l472 -354 237 -355 708 -708 355 -355 354 -472 709 -709 708 -708 709 -709 236 -118 591 -591 709 -708 0 0 826 -709 709 -591 0 0 827 -708 590 -473 237 -118 708 -709 591 -354 236 -236 827 -709 354 -236 473 -355 826 -590 237 -236 590 -355 827 -590 236 -118 591 -473 945 -472 0 -118 827 -473 826 -590 0 0 945 -473 709 -472 236 -118 827 -473 591 -354 354 -118 945 -473 827 -472 945 -473 354 -236 590 -236 945 -354 237 -237 708 -236 945 -472 118 0 827 -355 945 -354 118 0 945 -473 827 -236 118 -118 945 -354 827 -236 236 0 945 -355 590 -236 473 -118 945 -236 1063 -355 945 -236 354 -118 709 -118 1063 -355 118 0 827 -118 1063 -236 118 0 945 -236 945 -236 118 0 1063 -118 827 -119 236 -118 1063 -118 708 -118 355 0 1063 -118 590 -118 473 0 1063 -118 472 0 591 -118 1181 0 236 0 827 -118 1063 0 118 0 945 0 1181 0 1181 0 827 0 355 0 1299 0 472 118 709 0 1181 118 118 0 1063 118 945 0 236 118 1182 118 590 0 591 118 1181 118 236 118 945 119 945 118 236 118 1181 236 591 118 472 0 1181 354 237 0 945 237 944 236 119 0 1181 354 590 118 473 237 1181 236 236 118 827 236 1063 355 0 0 1181 472 709 236 354 118 1063 355 354 236 709 236 1063 473 0 0 1063 472 709 236 354 237 1063 472 355 118 590 354 1063 473 118 118 945 472 709 355 236 118 1063 590 354 237 591 354 945 591 118 0 827 590 827 473 236 118 945 590 472 355 473 354 826 591 237 118 708 590 827 591 118 0 945 709 473 472 354 236 945 709 236 236 1418 1181 0 0 826 827 591 473 354 236 827 827 236 236 591 472 709 827 118 0 708 827 591 590 236 237 709 826 354 355 473 472 708 827 118 118 591 709 591 708 118 237 708 827 355 472 354 472 709 827c10039,13347 15945,29883 15945,47836 0,44057 -35670,79727 -79609,79727zm-184257 -66498c-22088,0 -39923,-17953 -39923,-40041 0,-22087 17835,-40040 39923,-40040 22205,0 40040,17953 40040,40040 0,22088 -17835,40041 -40040,40041zm364617 0c-22087,0 -40040,-17953 -40040,-40041 0,-22087 17953,-40040 40040,-40040 22088,0 40041,17953 40041,40040 0,22088 -17953,40041 -40041,40041zm-328947 -1651705c11693,28347 23977,47836 42639,63427 111145,57049 136540,53860 240834,0 16418,-13701 27875,-30356 38387,-53506 -14173,-18189 -25512,-39450 -32953,-64844 -43821,28819 -86932,43347 -131107,43584 -44293,118 -87877,-14292 -132524,-43584 -6142,20906 -14646,38977 -25276,54923zm435014 90239c11693,35434 19252,72049 22087,110082 11221,-3071 23741,-236 32481,8622 13111,12993 13111,34135 0,47128 -12992,13110 -34135,13110 -47127,0 -9095,-8977 -11812,-21851 -8386,-33309 -57876,1418 -114925,-12283 -171147,-40394 -19607,51615 -46774,99215 -83389,141736 10158,5788 16890,16654 16890,29056 0,18426 -14882,33308 -33308,33308 -18425,0 -33426,-14882 -33426,-33308 0,-12756 7205,-23859 17717,-29410 -39450,-37560 -68860,-84097 -88822,-139020 -54804,26457 -110318,39450 -166540,38032 3425,11458 708,24332 -8268,33309 -13111,13110 -34253,13110 -47246,0 -12992,-12993 -12992,-34135 0,-47128 8859,-8858 21261,-11693 32482,-8622 2952,-39805 11220,-78073 23859,-115043 -24922,12047 -51498,22678 -78664,33426 -24686,9804 -49844,19725 -74058,31655 31419,34371 53033,71340 66026,109609 15237,44884 18426,91302 11221,136540l729826 0c-7087,-45238 -3898,-91656 11221,-136540 11102,-32481 28347,-64135 52560,-93900 -33662,-19371 -70277,-33426 -105712,-47246 -24095,-9331 -47836,-18426 -70277,-28583zm-206582 37914c-48308,25158 -69451,35198 -138902,-827l-708 -354 -709 -354 -827 -355 118 709 118 591c5552,57285 27993,115515 73467,153075 43348,-45828 60593,-96263 70869,-152721l118 -591 0 -472 118 -591 -591 355 -708 354 -591 236 -591 355 -472 236 -118 118 -591 236zm31182 -3779l-354 118 -472 118 -473 118 -472 236 -473 118 355 236 236 237 354 236 236 236 355 236 354 237 236 236c45002,35670 97444,61301 159100,55395 -1536,-57521 -24568,-112326 -57876,-158154l-473 -709 -472 -591 -118 355 -118 354 -118 236 -118 355c-20434,63781 -35789,80790 -99689,100397zm-192880 0c-68388,-21615 -80081,-37797 -100278,-101697l-355 473 -354 472c-33308,46301 -56577,98744 -58230,158509 57757,5434 115161,-19370 159099,-55277l355 -354 354 -237 354 -354 355 -236 354 -355 354 -236 -472 -236 -591 -118 -472 -118 -473 -236zm287962 -237409c5079,51733 30710,84687 66735,109373l159099 -274969 -8504 -5670 -355 591c-10630,18426 -34134,24686 -52560,14174 -18308,-10631 -24686,-34135 -14056,-52561l827 -1299c-14882,-7914 -30119,-15237 -45592,-22088 -11457,77955 -40159,147879 -80672,202448 -7795,10512 -16181,20551 -24922,30001zm119413 137838c18544,8268 38269,15946 58349,23741l19843 7678 189336 -189101 -8504 -9921c-14646,8150 -33426,5905 -45828,-6496 -12756,-12757 -14646,-32482 -5551,-47246 -8386,-8150 -17009,-16064 -25867,-23741l-181778 245086zm144336 59294c29646,13937 58466,30119 84569,50552l154257 -88939c-3189,-6733 -6614,-13465 -10040,-20080 -15709,3189 -32481,-3779 -40985,-18425 -8504,-14883 -6024,-32954 4842,-45002 -4370,-6969 -8740,-13701 -13228,-20434l-179415 142328zm138075 104885c18189,24213 33426,52915 44529,87168l123783 -33072c-1772,-8504 -3779,-17008 -5787,-25513 -17481,591 -33663,-10866 -38387,-28465 -4489,-17008 3071,-34371 17480,-42993 -1771,-5316 -3661,-10749 -5551,-16064l-136067 58939zm60710 160989c1890,14646 3189,30119 3898,46419l123075 0c-827,-21733 -2481,-43230 -4843,-64490l-122130 18071zm-1312246 46419c945,-22324 2953,-42993 6024,-62246l-118350 -20316c-3543,27167 -6024,54687 -7087,82562l119413 0zm24922 -135831c12639,-34017 29411,-62010 49136,-85515l-135477 -62364c-3307,8623 -6378,17363 -9449,26222 15355,8149 23741,26221 19016,43820 -4960,18308 -22323,30001 -40749,28347 -1181,4725 -2362,9449 -3425,14174l120948 35316zm105830 -137603c24214,-17126 50317,-31182 77011,-43466l-177407 -142800c-4134,6142 -8150,12284 -12166,18544 11811,11930 14764,30828 5906,46183 -8859,15473 -26812,22323 -43230,17953l-4961 9567 154847 94019zm143155 -71341l7441 -2952c20788,-8268 41103,-16300 60120,-25277l-180478 -236700c-4016,3543 -7914,7205 -11812,10866 10040,14883 8504,35316 -4724,48545 -12993,12874 -32836,14646 -47718,5315 -3189,3662 -6497,7323 -9686,10985l186857 189218zm120003 -58466c33899,-25158 57286,-59057 60829,-111736 -6969,-7795 -13583,-15945 -19843,-24449 -39804,-53506 -68270,-121894 -80081,-198078 -12875,5906 -25631,12284 -38151,18899 8150,17835 1535,39332 -15709,49253 -17127,9922 -38505,5197 -49963,-10158 -5197,3426 -10394,6969 -15472,10513l158390 265756zm-20315 -549702c-35434,-52089 -89176,-174100 -103704,-209062 -56695,58703 -108901,129689 -155438,210833 -82562,143863 -147170,319144 -187447,514977 35670,-63427 78309,-121775 126854,-173864 83153,-89530 183313,-160635 294931,-207408 0,-53387 8858,-98152 24804,-135476zm587144 131224c115752,46655 219574,119413 305207,211660 48545,52089 91184,110437 126854,173864 -40277,-195833 -104885,-371114 -187447,-514977 -52915,-92365 -113271,-171501 -179061,-234338 -19016,62955 -54686,174218 -88585,226543 14528,37442 22560,82798 23032,137248zm265520 41931l4016 15236 12757 -9213c2008,-1417 4842,-944 6260,1063 945,1418 1063,3071 354,4489l-6733 14292 15710 1181c2480,236 4252,2362 4134,4842 -118,1772 -1182,3071 -2717,3780l-14292 6496 11339 11103c1654,1654 1772,4488 0,6260 -1181,1181 -2835,1536 -4370,1181l-15237 -4252 1536 15709c236,2481 -1536,4607 -4016,4843 -1772,236 -3307,-709 -4134,-2008l-8859 -12874 -8976 12992c-1418,2008 -4134,2481 -6142,1181 -1418,-945 -2126,-2598 -1890,-4252l1417 -15591 -15236 4252c-2363,591 -4843,-708 -5434,-3189 -472,-1535 118,-3189 1181,-4252l11221 -11103 -14291 -6614c-2245,-945 -3308,-3662 -2245,-5788 709,-1535 2126,-2480 3662,-2598l15709 -1299 -6732 -14292c-1063,-2126 -119,-4843 2126,-5906 1535,-709 3425,-472 4724,591l12638 8976 3898 -15236c591,-2363 3071,-3898 5433,-3189 1654,354 2835,1653 3189,3189zm-154847 -307333l3898 15119 12874 -9095c2008,-1417 4843,-945 6260,945 945,1417 1063,3189 355,4488l-6733 14292 15709 1299c2363,118 4252,2244 4134,4725 -236,1890 -1417,3307 -3071,3898l-13937 6378 11221 11102c1771,1654 1771,4489 118,6260 -1181,1182 -2953,1536 -4370,1182l-15237 -4252 1535 15709c237,2480 -1653,4724 -4016,4842 -1653,237 -3307,-590 -4134,-1889l-8976 -12993 -8859 12993c-1417,2007 -4252,2598 -6260,1181 -1417,-945 -2008,-2599 -1890,-4134l1536 -15709 -15237 4252c-2362,590 -4842,-709 -5433,-3071 -473,-1654 0,-3308 1181,-4371l11221 -11102 -14410 -6497c-2244,-1063 -3189,-3661 -2126,-5905 709,-1536 2126,-2481 3661,-2599l15710 -1299 -6851 -14174c-945,-2244 -118,-4960 2126,-6023 1654,-709 3425,-473 4725,590l12638 8977 4016 -15237c590,-2362 3071,-3780 5433,-3189 1654,354 2835,1772 3189,3307zm38860 124728l9921 38269 32127 -22914c2008,-1417 4725,-945 6142,945 945,1418 1063,3189 472,4489l-17008 35670 39332 3071c2480,236 4252,2362 4134,4843 -118,1771 -1417,3307 -2953,3897l-35670 16182 28229 27639c1772,1771 1772,4606 0,6378 -1063,1181 -2835,1535 -4370,1181l-38033 -10630 3780 39332c236,2480 -1536,4606 -4016,4842 -1654,118 -3189,-590 -4016,-1890l-22442 -32599 -22323 32599c-1418,2008 -4134,2481 -6142,1182 -1418,-945 -2126,-2599 -2008,-4252l3898 -39214 -38151 10630c-2362,590 -4843,-827 -5433,-3189 -473,-1536 0,-3189 1181,-4370l28111 -27639 -35907 -16418c-2244,-945 -3189,-3661 -2244,-5906 709,-1417 2244,-2480 3780,-2480l39332 -3189 -17009 -35552c-1063,-2245 -118,-4961 2126,-6024 1536,-709 3426,-473 4725,590l31891 22796 9921 -38269c591,-2362 3071,-3779 5433,-3189 1654,473 2835,1654 3190,3189zm-993929 182723l3897 15118 12875 -9213c2008,-1417 4724,-944 6260,1063 945,1418 945,3071 354,4489l-6850 14292 15709 1181c2480,236 4370,2362 4134,4842 -118,1772 -1300,3308 -2953,3898l-14056 6378 11339 11103c1772,1654 1772,4488 0,6260 -1181,1181 -2835,1536 -4370,1181l-15119 -4252 1418 15709c236,2481 -1536,4607 -4016,4843 -1654,236 -3189,-709 -4134,-2008l-8859 -12874 -8976 12992c-1300,2008 -4134,2481 -6142,1181 -1418,-945 -2008,-2598 -1890,-4134l1535 -15709 -15236 4252c-2363,591 -4843,-708 -5552,-3189 -354,-1535 118,-3189 1182,-4252l11338 -11103 -14409 -6614c-2245,-945 -3190,-3662 -2245,-5788 709,-1535 2245,-2480 3780,-2598l15709 -1299 -6850 -14292c-1063,-2126 -119,-4843 2126,-5906 1653,-709 3425,-472 4724,591l12638 8976 4016 -15236c591,-2481 2953,-3898 5433,-3189 1654,354 2835,1653 3190,3307zm137484 -307451l3898 15119 12874 -9095c2008,-1417 4725,-945 6142,945 945,1417 1063,3189 473,4488l-6851 14292 15709 1299c2481,118 4371,2244 4134,4725 -118,1890 -1299,3307 -2953,3898l-14055 6378 11339 11102c1653,1654 1772,4489 0,6260 -1181,1182 -2835,1536 -4370,1182l-15237 -4252 1535 15709c237,2480 -1535,4724 -4015,4842 -1654,237 -3190,-590 -4016,-1889l-8977 -12993 -8977 12993c-1299,2007 -4134,2598 -6142,1181 -1417,-945 -2126,-2599 -1889,-4134l1417 -15709 -15119 4252c-2480,590 -4842,-709 -5551,-3071 -472,-1654 118,-3308 1181,-4371l11221 -11102 -14292 -6497c-2244,-1063 -3189,-3661 -2244,-5905 709,-1536 2126,-2481 3780,-2599l15709 -1299 -6851 -14174c-1063,-2244 -118,-4960 2126,-6023 1536,-709 3426,-473 4725,590l12638 8977 3898 -15237c590,-2362 3071,-3780 5433,-3189 1654,354 2953,1772 3307,3307zm-15591 124728l9922 38269 32127 -22914c2008,-1417 4724,-945 6142,945 1063,1418 1063,3189 472,4489l-17008 35670 39332 3071c2480,236 4252,2362 4134,4843 -118,1771 -1300,3307 -2953,3897l-35671 16182 28230 27639c1771,1771 1771,4606 118,6378 -1181,1181 -2953,1535 -4370,1181l-38151 -10630 3779 39332c237,2480 -1535,4606 -4016,4842 -1653,118 -3189,-590 -4015,-1890l-22442 -32599 -22324 32599c-1299,2008 -4134,2481 -6142,1182 -1417,-945 -2126,-2599 -1889,-4252l3779 -39214 -38150 10630c-2363,590 -4725,-827 -5434,-3189 -472,-1536 118,-3189 1181,-4370l28230 -27639 -36025 -16418c-2244,-945 -3189,-3661 -2244,-5906 708,-1417 2244,-2480 3779,-2480l39332 -3189 -17008 -35552c-1063,-2245 -118,-4961 2126,-6024 1535,-709 3425,-473 4725,590l31890 22796 9922 -38269c590,-2362 3071,-3779 5433,-3189 1654,473 2835,1654 3189,3189zm69806 -335443l-827 1181 -1536 2362 -1535 2244c-26812,41340 -1536,50435 23386,52561l1772 -354 709 -118 1063 -237 1417 -354 236 -118 1772 -472 1181 -355 473 -118 1181 -354 590 -236 1654 -591 0 -118 1654 -591 708 -354 827 -354 1417 -709 237 -118 1535 -827 473 -118 236 -236 1771 -1063 119 0 472 -355 1536 -945 118 -118 1417 -827 118 -236 1299 -827 119 -118 1299 -1063 1417 -1063 0 -118 1299 -1063 237 -236 1181 -1063 0 0 1417 -1299 118 -237 1181 -1063 1182 -1417 0 0 1181 -1417 118 0 1181 -1536 2362 -3071 1181 -1535 2126 -3307 1063 -1772 0 0 945 -1772c2953,-5315 5552,-11221 7560,-17717l708 -2126c4843,-16064 6733,-35080 4961,-56459 -2126,-25512 -9331,-54450 -22914,-85750 17126,27875 29883,53387 40159,76183l590 1300 237 472 354 827 590 1299 591 1181 472 1063 0 236 591 1300 591 1181 472 1299 236 236 355 945 590 1299 473 1182 354 826 236 473 473 1181 590 1181 473 1181 0 118 472 1182 591 1181 472 1181 236 472 237 709 472 1181 591 1181 354 945 118 118 473 1181 472 1182 472 1181 119 236 354 827 472 1181 473 1063 354 709 118 472 473 1063 472 1181 473 1063 0 0 472 1063 473 1063 472 1181 118 473 236 590 473 1063 472 1063 355 827 118 236 472 1063 355 945 472 1063 118 237 354 826 1063 2717 237 354 354 945 473 1063 472 945 0 118 354 827 473 1063 354 945 236 473 237 472 354 945 472 945 355 827 0 118 472 945 473 945 354 944 118 237 354 590 355 945 472 945 236 591 119 236 472 945c13819,29646 27284,47482 53506,50671l12992 0c27048,-1063 52207,-12402 77719,-102996l236 -945 0 0 355 -1063 236 -1063 236 -1063 355 -1063 354 -1417 236 -709 1417 -5197 0 -118 1418 -5669 118 -355 236 -708 473 -2363 354 -1181 236 -1063 236 -945 119 -236 236 -1181 590 -2480 355 -1182 236 -1181 118 -354 118 -827 354 -1299 237 -1181 354 -1300 236 -1181 236 -945 119 -354 236 -1181 354 -1299 236 -1300 237 -1299 354 -1299 0 -236 236 -1063 591 -2599 354 -1299 236 -1417 237 -827 118 -473 236 -1299 354 -1417 236 -1300 355 -1417 236 -1299 0 -236 236 -1182 355 -1417 236 -1417 354 -1418 236 -1417 237 -709 118 -708 236 -1418 354 -1417 237 -1418 354 -1417 236 -1535 0 0 236 -1418 355 -1535 236 -1418c1890,-9449 3780,-19252 5551,-29646 3662,9685 7441,19016 11339,27757l591 1417 590 1417 591 1300 590 1417 709 1299 591 1299 0 0 590 1418 591 1299 709 1299 590 1300 591 1299 0 0 708 1299 591 1299 591 1300 708 1299 1890 3780 591 1181 708 1299 591 1181 590 1299 709 1181 591 1182 2008 3661 590 1181 709 1181 590 1182 709 1063 0 118 591 1063 708 1181 591 1181 709 1063 708 1181 0 118 591 945 709 1181 708 1063 591 1063 2008 3308 708 1063 709 1063 591 1063 118 236 590 827 709 1063 591 1063 708 1063 709 945 118 236 591 827 590 945 709 1063 709 1063 1299 1889 709 1063 708 945 709 945 709 945 118 236 590 709 591 945 709 945c54923,74884 118350,90830 159926,93901 36851,2716 68388,-4843 94963,-19962l827 -472 236 -118 1064 -591 1063 -590 944 -709 237 0 826 -591 1064 -708 1063 -591 354 -354 590 -355 1063 -708 1064 -591 708 -472 236 -237 1063 -708 945 -709 1063 -709 0 0 945 -708 945 -709 1063 -709 945 -826 945 -709 945 -709 591 -472 354 -355 945 -708 945 -827 945 -827 945 -709 944 -826 945 -827 945 -827 945 -827 827 -827 472 -354 473 -472 945 -827 827 -827 708 -591 236 -236 827 -827 945 -944 827 -827 0 0 945 -945 827 -827 827 -945 236 -236 590 -591 945 -945 827 -945 827 -826 827 -945 826 -945 709 -827 118 -118 827 -945 827 -945 827 -945 118 -236 708 -709 709 -1063 827 -945 354 -472 473 -473 708 -1063 827 -944 591 -709 118 -236 827 -1063 1535 -2008 0 0 1536 -2008 708 -1063 237 -355 472 -708c17599,-24922 30828,-54569 40395,-86814 6851,40985 -4134,75002 -18308,101932l-708 1418 -827 1417 0 118 -827 1417 -709 1418 -354 472 -472 945 -827 1418 -591 944 -236 473 -827 1299 -827 1418 -826 1299 -827 1299 -236 591 -1300 2126 -708 945 -119 354 -1653 2480 -118 118 -709 1182 -827 1181 -354 472 -473 709 -1417 2126 -118 354 -827 1063 -827 1181 -118 119 -590 1063 -827 1063 -354 590 -473 591 -709 1063 -590 945 -118 118 -827 1063 -709 1063 -118 236 -590 827 -709 1063 -354 472 -355 473 -708 1063 -591 827 -118 118 -591 945 -708 945 -119 236 -472 708 -709 945 -354 473 -236 472 -591 827 -472 827 -118 118 -591 827 -472 827 -119 236 -472 590 -472 827 -355 473 -118 354 -472 827 -945 1535 -355 709 -118 236 -354 473 -354 826 -355 591 -236 709 -354 708 0 0 -237 709 -354 591 0 236 -236 354 -118 709 -236 590 -119 591 0 0 -236 1063c-827,5551 2717,8859 13229,9803l1535 119c23741,-1772 26576,-15591 31891,-26694l236 -591 237 -472 118 -591 236 -590 236 -591 236 -472 119 -591 236 -590 236 -473 118 -591 236 -590 237 -473 118 -236 118 -354 118 -473 236 -590 236 -591 119 -472 236 -591 236 -590 118 -473 236 -590 237 -473 118 -590 236 -473 118 -472 118 -118 118 -591 236 -472 237 -591 118 -472 236 -591 118 -472 236 -591 237 -472 118 -591 236 -473 118 -590 236 -473 0 -236 237 -354 118 -473 236 -590 118 -473 236 -590 236 -473 119 -590 236 -473 118 -472 236 -591 118 -472 236 -591 119 -354 0 -118 236 -591 118 -472 236 -473 118 -590 236 -473 119 -472 236 -591 118 -472 236 -473 118 -590 237 -473 118 -472 118 -118 118 -473 118 -472c42049,-124374 33190,-185439 -56340,-278395 70396,96972 48308,185321 -14647,230913l-1299 945c-8150,5669 -16890,10748 -26221,15000l-1654 709 -1535 709c-5197,2244 -10630,4252 -16300,6024l-1653 472 -5079 1536 -1654 472 -1772 473 -3425 826 -1772 355 -5315 1063 -1772 354 -5315 945 -1889 236 -5434 709 -1771 236 -1890 118 -1772 236 -1890 119 -1890 118 -1889 118 -1890 118 -1772 118 -1890 0 -1890 118 -1889 0 -2008 0 -1890 0 0 0c-31182,-236 -64609,-7677 -97917,-23741 -4134,-2008 -8268,-4134 -12165,-6260l0 0 -3189 -1772 -473 -236 -1772 -945 -1771 -1063 -1772 -1063 -1654 -1063 -1771 -1063 0 0 -3308 -2126 -1653 -1063 -1654 -1063 -3189 -2126 -118 -118 -1535 -1181 -1654 -1063 -2835 -2126 -236 -118 -1535 -1182 -355 -236 -2598 -2126 -1536 -1181 -1417 -1181 -118 -118 -2363 -1890 -472 -354 -1417 -1182 -1300 -1299 -2362 -2008 -472 -354 -1300 -1299 -1299 -1181 -1299 -1300 -1299 -1299 -1300 -1181 -2126 -2244 -2716 -2835 -1300 -1417 -1181 -1300 -1181 -1299 0 -118 -2244 -2480 -1063 -1418 -1063 -1299 -1063 -1181 0 -118 -1063 -1418 -1063 -1299 -1063 -1417 -1890 -2481 -118 -236 -945 -1417 0 0 -1890 -2717 -945 -1417 -827 -1418 -118 -118 -1535 -2480 -118 -236 -945 -1418 -827 -1417 0 0 -1063 -1890 -1299 -2362 -827 -1536 -709 -1417c-40749,-79491 -5787,-180006 102405,-244732 -133587,31536 -157446,156501 -178470,253472l-354 1536 -355 1417 -118 355 -236 1181 -354 1535 -237 1536 -354 1535 -354 1418 -118 472 -237 1063 -354 1536 -236 1417 -355 1535 -354 1418 -118 472 -236 1063 -355 1418 -354 1417 -236 1417 -355 1536 -118 472 -236 945 -354 1418 -355 1417 -354 1417 -354 1418 -118 590 -237 827 -354 1299 -354 1418 -237 1417 -354 1299 -236 709 -118 709 -473 1417 -354 1299 -354 1300 -355 1299 -118 708 -236 709 -354 1299 -355 1300 -354 1299 -473 1299 -354 1299 -354 1182 -355 1299 -472 1299 -354 1181 -827 2481 -354 1181 -473 1299 -354 1181 -473 1181 -354 1181 -473 1182 -354 1181 -472 1063 -827 2362 -473 1063 -472 1063 -1417 3307 -473 1063 -472 1063c-11575,25277 -27757,40868 -54451,39568 -6969,-1299 -13347,-4724 -19252,-9803l-709 -591 -709 -708 -708 -591 -709 -709 -355 -236 -1771 -1771 -709 -827 -709 -709 -1417 -1535 -591 -709 -708 -827 -118 -236 -1181 -1417 -709 -827 -709 -827 -590 -827 -1418 -1772 -590 -945 -709 -944 -591 -945 -708 -945 -591 -945 -709 -945 -590 -945 -1299 -2008 -709 -945 -591 -1063 -1299 -2008 -590 -1063 -709 -1063 -591 -1063 -236 -472 -472 -591 -591 -1181 -591 -1063 -708 -1063 -473 -945 -118 -236 -590 -1063 -709 -1181 -591 -1182 -590 -1063 -118 -236 -591 -945 -590 -1181 -591 -1181 -709 -1181 -354 -591 -236 -590 -709 -1181 -590 -1300 -591 -1181 -591 -1063 -118 -118 -590 -1299 -591 -1181 -709 -1300 -590 -1181 -236 -354 -473 -945 -590 -1181 -591 -1299 -709 -1300 -354 -826 -236 -473 -709 -1299c-40985,-81971 -90593,-195715 -243551,-144453 248039,27756 161108,165123 126855,216975zm335561 98034c22442,0 40513,18190 40513,40632 0,22441 -18071,40513 -40513,40513 -22441,0 -40631,-18072 -40631,-40513 0,-22442 18190,-40632 40631,-40632zm0 -39095c-44056,0 -79727,35670 -79727,79727 0,20433 7678,38977 20316,53151l472 354 237 355 708 708 355 355 354 472 709 709 708 708 709 709 236 118 591 591 709 708 0 0 826 709 709 591 0 0 827 708 590 473 237 118 708 709 591 354 236 236 827 709 354 236 473 355 826 590 237 236 590 355 827 590 236 118 591 473 945 472 0 118 827 473 826 590 0 0 945 473 709 472 236 118 827 473 591 354 354 118 945 473 827 472 945 473 354 236 590 236 945 354 237 237 708 236 945 472 118 0 827 355 945 354 118 0 945 473 827 236 118 118 945 354 827 236 236 0 945 355 590 236 473 118 945 236 1063 355 945 236 354 118 709 118 1063 355 118 0 827 118 1063 236 118 0 945 236 945 236 118 0 1063 118 827 119 236 118 1063 118 708 118 355 0 1063 118 590 118 473 0 1063 118 472 0 591 118 1181 0 236 0 827 118 1063 0 118 0 945 0 1181 0 1181 0 827 0 355 0 1299 0 472 -118 709 0 1181 -118 118 0 1063 -118 945 0 236 -118 1182 -118 590 0 591 -118 1181 -118 236 -118 945 -119 945 -118 236 -118 1181 -236 591 -118 472 0 1181 -354 237 0 945 -237 944 -236 119 0 1181 -354 590 -118 473 -237 1181 -236 236 -118 827 -236 1063 -355 0 0 1181 -472 709 -236 354 -118 1063 -355 354 -236 709 -236 1063 -473 0 0 1063 -472 709 -236 354 -237 1063 -472 355 -118 590 -354 1063 -473 118 -118 945 -472 709 -355 236 -118 1063 -590 354 -237 591 -354 945 -591 118 0 827 -590 827 -473 236 -118 945 -590 472 -355 473 -354 826 -591 237 -118 708 -590 827 -591 118 0 945 -709 473 -472 354 -236 945 -709 236 -236 1418 -1181 0 0 826 -827 591 -473 354 -236 827 -827 236 -236 591 -472 709 -827 118 0 708 -827 591 -590 236 -237 709 -826 354 -355 473 -472 708 -827 118 -118 591 -709 591 -708 118 -237 708 -827 355 -472 354 -472 709 -827c10039,-13347 15945,-29883 15945,-47836 0,-44057 -35670,-79727 -79609,-79727zm-184257 66498c-22088,0 -39923,17953 -39923,40041 0,22087 17835,40040 39923,40040 22205,0 40040,-17953 40040,-40040 0,-22088 -17835,-40041 -40040,-40041zm364617 0c-22087,0 -40040,17953 -40040,40041 0,22087 17953,40040 40040,40040 22088,0 40041,-17953 40041,-40040 0,-22088 -17953,-40041 -40041,-40041z"/></g><text x="0" y="5000015" fill="#000000" font-size="5px" font-weight="bold" font-family="'Helvetica Neue', Helvetica, Arial-Unicode, Arial, Sans-serif">Created by abeldb</text><text x="0" y="5000020" fill="#000000" font-size="5px" font-weight="bold" font-family="'Helvetica Neue', Helvetica, Arial-Unicode, Arial, Sans-serif">from the Noun Project</text></svg>