<?xml version="1.0" encoding="iso-8859-1"?>
<!-- Generator: Adobe Illustrator 19.0.0, SVG Export Plug-In . SVG Version: 6.00 Build 0)  -->
<svg version="1.1" id="Layer_1" xmlns="http://www.w3.org/2000/svg" xmlns:xlink="http://www.w3.org/1999/xlink" x="0px" y="0px"
	 viewBox="0 0 512 512" style="enable-background:new 0 0 512 512;" xml:space="preserve">
<g>
	<g>
		<path d="M452.09,335.122c62.386-69.965,60.006-177.603,59.867-182.309c-0.255-8.712-7.161-15.767-15.864-16.21
			c-2.307-0.116-34.685-1.557-74.997,6.427c-7.934-39.686-21.397-68.089-22.046-69.442c-3.695-7.715-12.621-11.393-20.681-8.529
			c-1.409,0.502-30.793,11.089-64.301,33.391c-22.136-33.013-45.055-53.88-46.902-55.536c-6.353-5.7-15.98-5.7-22.333,0
			c-1.847,1.658-24.767,22.523-46.902,55.536c-33.507-22.302-62.891-32.891-64.3-33.392c-8.061-2.866-16.983,0.815-20.681,8.529
			c-0.649,1.353-14.111,29.756-22.046,69.442c-40.312-7.986-72.689-6.543-74.996-6.426c-8.706,0.441-15.61,7.497-15.865,16.21
			c-0.138,4.706-2.518,112.345,59.867,182.309c-25.548,10.116-54.712,27.242-54.712,54.639c0,26.751,27.147,48.071,80.688,63.368
			c45.665,13.047,106.079,20.232,170.114,20.232c64.035,0,124.449-7.185,170.114-20.232c53.54-15.297,80.688-36.617,80.688-63.368
			C506.802,362.378,477.675,345.252,452.09,335.122z M478.058,170.096c-1.946,31.969-11.425,103.617-56.537,148.728
			c-36.2,36.199-89.566,48.414-125.646,52.438c39.064-48.084,66.363-107.116,59.272-168.736
			C398.199,176.455,451.645,171.071,478.058,170.096z M374.92,102.738c4.236,11.349,9.815,28.472,13.716,48.559
			c-13.576,4.293-27.37,9.806-40.69,16.88c-4.406-14.561-10.245-28.283-16.784-40.922
			C348.028,115.898,363.966,107.764,374.92,102.738z M256.021,79.056c35.584,38.182,66.859,90.846,66.859,143.503
			c0,63.89-45.323,120.279-66.902,143.503c-21.587-23.163-66.859-79.39-66.859-143.503C189.12,170.1,220.169,117.642,256.021,79.056
			z M137.081,102.738c10.957,5.028,26.895,13.161,43.758,24.516c-6.539,12.639-12.377,26.362-16.784,40.922
			c-13.319-7.074-27.113-12.587-40.689-16.88C127.267,131.207,132.847,114.083,137.081,102.738z M33.942,170.07
			c26.377,0.94,79.734,6.278,122.913,32.453c-7.089,61.584,20.174,120.616,59.271,168.739
			c-36.08-4.024-89.446-16.237-125.645-52.438C45.355,273.698,35.883,202.016,33.942,170.07z M416.928,420.976
			c-42.759,12.217-99.912,18.946-160.927,18.946c-61.015,0-118.167-6.728-160.928-18.946
			c-46.066-13.162-56.434-27.299-56.434-31.214c0-3.733,9.353-16.619,49.518-29.148c45.956,33.345,113.973,48.174,167.843,45.886
			c53.029,2.254,121.345-12.148,167.843-45.886c40.165,12.529,49.518,25.415,49.518,29.148
			C473.362,393.676,462.995,407.814,416.928,420.976z"/>
	</g>
</g>
<g>
</g>
<g>
</g>
<g>
</g>
<g>
</g>
<g>
</g>
<g>
</g>
<g>
</g>
<g>
</g>
<g>
</g>
<g>
</g>
<g>
</g>
<g>
</g>
<g>
</g>
<g>
</g>
<g>
</g>
</svg>
