<?xml version="1.0" encoding="iso-8859-1"?>
<!DOCTYPE svg PUBLIC "-//W3C//DTD SVG 1.1//EN" "http://www.w3.org/Graphics/SVG/1.1/DTD/svg11.dtd">
<svg version="1.1" id="Capa_1" xmlns="http://www.w3.org/2000/svg" xmlns:xlink="http://www.w3.org/1999/xlink">
<g>
	<path d="M403.711,69.266C359.045,24.599,299.656,0,236.489,0C173.32,0,113.932,24.599,69.266,69.267
		C24.598,113.933,0,173.321,0,236.489s24.599,122.556,69.267,167.223c44.665,44.667,104.053,69.267,167.222,69.267
		c63.167,0,122.556-24.6,167.222-69.268c44.668-44.666,69.268-104.054,69.268-167.223S448.379,113.933,403.711,69.266z
		 M425.104,236.489c0,41.728-13.629,80.326-36.658,111.599L261.488,221.131V49.534C353.715,61.802,425.104,140.962,425.104,236.489z
		 M211.489,423.444c-34.572-4.599-66.213-18.597-92.266-39.335l92.266-92.268V423.444z M261.488,291.842l92.266,92.267
		c-26.053,20.739-57.691,34.736-92.266,39.335V291.842z M211.489,49.534v171.597L84.532,348.088
		c-23.028-31.272-36.658-69.871-36.658-111.599C47.874,140.962,119.262,61.802,211.489,49.534z"/>
</g>
</svg>
