<?xml version="1.0" encoding="iso-8859-1"?>
<svg version="1.1" id="Layer_1" xmlns="http://www.w3.org/2000/svg" xmlns:xlink="http://www.w3.org/1999/xlink" x="0px" y="0px"
	 viewBox="0 0 504 504" style="enable-background:new 0 0 504 504;" xml:space="preserve">
<g>
<!-- circle -->	
<path d="M252,504C112.8,504,0,391.2,0,252S112.8,0,252,0s252,112.8,252,252S391.2,504,252,504z M252,16
		C121.6,16,16,121.6,16,252s105.6,236,236,236s236-105.6,236-236S382.4,16,252,16z"/>
<!-- triangle -->
	<path d="M461.6,372H42.4c-3.2,0-5.6-0.8-7.2-4c-1.6-2.4-1.6-5.6,0-8L244.8,4c3.2-4.8,11.2-4.8,13.6,0
		L468,360.8c1.6,2.4,1.6,4.8,0,8C467.2,371.2,464.8,372,461.6,372z M56,356h391.2L252,23.2L56,356z"/>
</g>
</svg>
