<?xml version="1.0" encoding="iso-8859-1"?>
<!-- Generator: Adobe Illustrator 18.0.0, SVG Export Plug-In . SVG Version: 6.00 Build 0)  -->
<!DOCTYPE svg PUBLIC "-//W3C//DTD SVG 1.1//EN" "http://www.w3.org/Graphics/SVG/1.1/DTD/svg11.dtd">
<svg version="1.1" id="Capa_1" xmlns="http://www.w3.org/2000/svg" xmlns:xlink="http://www.w3.org/1999/xlink" x="0px" y="0px"
	 viewBox="0 0 297 297" style="enable-background:new 0 0 297 297;" xml:space="preserve">
<g>
	<path d="M181.061,67.481c-9.428-2.057-21.269-3.594-32.561-3.594c-11.294,0-21.606,1.565-31.035,3.623
		C71.487,77.545,55.667,23.017,55.163,20.77c-0.781-3.559-3.555-6.343-7.111-7.136c-3.555-0.795-7.251,0.547-9.471,3.436
		c-0.773,1.007-7.657,10.265-11.024,24.881c-3.164,13.738-3.658,34.89,11.956,57.64c1.325,1.93,2.756,3.772,4.247,5.519H9.369
		c-2.887,0-5.612,1.33-7.387,3.607c-1.776,2.276-2.403,5.244-1.7,8.044c0.373,1.487,13.776,36.526,62.988,45.58
		c1.743,17.533,5.554,40.163,13.829,61.686c14.981,38.967,39.671,59.564,71.401,59.564c31.473,0,56.079-20.59,71.159-59.544
		c7.611-19.663,11.957-41.93,14.014-61.706c49.211-9.054,62.671-44.093,63.045-45.58c0.703-2.801,0.076-5.768-1.7-8.044
		c-1.775-2.276-4.501-3.607-7.387-3.607H253.24c1.491-1.747,2.922-3.589,4.247-5.519c15.614-22.75,15.12-43.902,11.956-57.64
		c-3.367-14.616-10.251-23.874-11.024-24.881c-2.216-2.885-5.906-4.216-9.451-3.431c-3.551,0.784-6.33,3.562-7.126,7.109
		C241.333,23.017,227.049,77.515,181.061,67.481z M244.553,59.115c2.737-3.844,5.043-7.758,6.972-11.503
		c2.15,10.902,1.396,25.517-9.488,41.377c-3.977,5.795-9.441,10.69-13.998,14.188c-3.692-7.357-8.767-13.801-15.094-19.231
		C225.158,79.696,235.828,71.373,244.553,59.115z M197.663,95.755c12.45,9.01,18.763,22.245,18.763,39.336
		c0,12.443-1.204,28.476-4.159,44.971H84.576c-2.859-16.308-4.002-32.247-4.002-44.971c0-17.091,6.313-30.326,18.763-39.336
		c11.87-8.59,28.87-13.13,49.163-13.13C168.793,82.625,185.793,87.166,197.663,95.755z M45.472,47.609
		c1.931,3.746,4.238,7.662,6.975,11.506c8.725,12.257,19.394,20.582,31.607,24.832c-6.324,5.428-11.397,11.868-15.088,19.221
		c-4.567-3.508-10.044-8.411-14.002-14.179C44.076,73.126,43.324,58.506,45.472,47.609z M25.064,123.849h37.555
		c-0.51,3.615-0.783,7.36-0.783,11.243c0,2.046,0.037,5.017,0.172,8.701C42.172,140.009,31.079,131.222,25.064,123.849z
		 M110.087,227.846c0-4.133,3.362-7.495,7.495-7.495c4.133,0,7.495,3.362,7.495,7.495s-3.362,7.495-7.495,7.495
		C113.449,235.341,110.087,231.978,110.087,227.846z M201.299,219.502c-3.37-8.807-11.904-15.079-21.881-15.079
		c-12.915,0-23.423,10.507-23.423,23.423s10.507,23.423,23.423,23.423c0.665,0,1.323-0.035,1.974-0.089
		c-9.385,9.09-20.374,13.674-32.892,13.674c-13.283,0-24.145-5.193-32.979-13.681c0.68,0.06,1.366,0.096,2.061,0.096
		c12.915,0,23.423-10.507,23.423-23.423s-10.507-23.423-23.423-23.423c-10.093,0-18.715,6.417-22.001,15.384
		c-2.732-6.689-5.026-13.774-6.931-21.006h119.487C206.455,205.129,203.596,213.568,201.299,219.502z M179.418,235.341
		c-4.133,0-7.495-3.363-7.495-7.495s3.362-7.495,7.495-7.495c4.133,0,7.495,3.362,7.495,7.495S183.551,235.341,179.418,235.341z
		 M234.992,143.792c0.115-3.043,0.172-5.956,0.172-8.701c0-3.883-0.273-7.628-0.783-11.243h37.599
		C265.988,131.202,254.899,139.997,234.992,143.792z"/>
	<path d="M117.579,159.92c2.473,0,4.881-1.003,6.623-2.746c1.752-1.742,2.746-4.159,2.746-6.623c0-2.464-0.994-4.881-2.746-6.624
		c-1.742-1.743-4.15-2.745-6.623-2.745c-2.464,0-4.881,1.002-6.624,2.745c-1.743,1.743-2.745,4.16-2.745,6.624
		c0,2.464,1.002,4.881,2.745,6.623C112.698,158.917,115.115,159.92,117.579,159.92z"/>
	<path d="M179.415,159.92c2.473,0,4.881-1.003,6.623-2.746c1.752-1.742,2.746-4.159,2.746-6.623c0-2.464-0.994-4.881-2.746-6.624
		c-1.742-1.743-4.15-2.745-6.623-2.745c-2.464,0-4.881,1.002-6.624,2.745c-1.743,1.743-2.745,4.16-2.745,6.624
		c0,2.464,1.002,4.881,2.745,6.623C174.534,158.917,176.951,159.92,179.415,159.92z"/>
</g>
<g>
</g>
<g>
</g>
<g>
</g>
<g>
</g>
<g>
</g>
<g>
</g>
<g>
</g>
<g>
</g>
<g>
</g>
<g>
</g>
<g>
</g>
<g>
</g>
<g>
</g>
<g>
</g>
<g>
</g>
</svg>
